<?xml version="1.0" encoding="utf-8"?>
<!-- Generator: Adobe Illustrator 25.1.0, SVG Export Plug-In . SVG Version: 6.00 Build 0)  -->
<svg version="1.1" id="Camada_1" xmlns="http://www.w3.org/2000/svg" xmlns:xlink="http://www.w3.org/1999/xlink" x="0px" y="0px"
	 viewBox="0 0 100 100" style="enable-background:new 0 0 100 100;" xml:space="preserve">
<style type="text/css">
	.st0{fill:#1C8336;}
	.st1{fill:#F2B91B;}
	.st2{fill:#272554;}
	.st3{fill:#FFFFFF;}
</style>
<circle class="st0" cx="50.17" cy="49.83" r="49.83"/>
<polygon class="st1" points="97.18,49.93 49.73,19.35 1.91,49.78 49.73,80.7 "/>
<circle class="st2" cx="49.55" cy="50.03" r="20.7"/>
<g>
	<g>
		<path class="st0" d="M47.32,77.2v-6.84c-3.93-0.07-8-1.29-10.37-2.98l1.63-4.54c2.44,1.63,5.96,2.91,9.76,2.91
			c4.81,0,8.06-2.78,8.06-6.64c0-3.73-2.64-6.03-7.66-8.06c-6.91-2.71-11.18-5.83-11.18-11.72c0-5.62,4-9.89,10.23-10.91v-6.84H52
			v6.57c4.07,0.14,6.84,1.22,8.81,2.37l-1.69,4.47c-1.42-0.81-4.2-2.3-8.54-2.3c-5.22,0-7.18,3.12-7.18,5.83
			c0,3.52,2.51,5.29,8.4,7.73c6.98,2.85,10.5,6.37,10.5,12.4c0,5.35-3.73,10.37-10.71,11.52v7.05H47.32z"/>
	</g>
	<g>
		<path class="st3" d="M47.32,77.2v-6.84c-3.93-0.07-8-1.29-10.37-2.98l1.63-4.54c2.44,1.63,5.96,2.91,9.76,2.91
			c4.81,0,8.06-2.78,8.06-6.64c0-3.73-2.64-6.03-7.66-8.06c-6.91-2.71-11.18-5.83-11.18-11.72c0-5.62,4-9.89,10.23-10.91v-6.84H52
			v6.57c4.07,0.14,6.84,1.22,8.81,2.37l-1.69,4.47c-1.42-0.81-4.2-2.3-8.54-2.3c-5.22,0-7.18,3.12-7.18,5.83
			c0,3.52,2.51,5.29,8.4,7.73c6.98,2.85,10.5,6.37,10.5,12.4c0,5.35-3.73,10.37-10.71,11.52v7.05H47.32z"/>
	</g>
</g>
<g>
</g>
<g>
</g>
<g>
</g>
<g>
</g>
<g>
</g>
<g>
</g>
</svg>
